<svg width="428" height="216" viewBox="0 0 428 216" fill="none" xmlns="http://www.w3.org/2000/svg">
<g clip-path="url(#clip0_172_82)">
<path d="M0 192.063V43.8346H65.5015C75.4512 43.8346 84.157 45.4241 91.6191 48.6028C99.0813 51.7814 104.885 56.2733 109.031 62.078C113.177 67.7445 115.249 74.4479 115.249 82.1874C115.249 89.5123 113.177 96.0082 109.031 101.675C104.885 107.341 99.0813 111.764 91.6191 114.943C84.157 118.121 75.4512 119.711 65.5015 119.711H37.7256V108.723H65.5015C76.6948 108.723 86.4371 110.382 94.7285 113.699C103.159 116.878 109.723 121.439 114.42 127.381C119.119 133.325 121.468 140.374 121.468 148.527C121.468 157.234 119.119 164.905 114.42 171.539C109.723 178.034 103.159 183.081 94.7285 186.672C86.4371 190.266 76.6948 192.063 65.5015 192.063H0ZM35.6527 162.832H65.7087C71.7901 162.832 76.5577 161.381 80.0114 158.478C83.6053 155.437 85.4006 151.291 85.4006 146.04C85.4006 141.203 83.6053 137.401 80.0114 134.637C76.5577 131.874 71.7901 130.491 65.7087 130.491H33.58V102.089H63.0142C68.1277 102.089 72.0661 100.776 74.8293 98.1504C77.7313 95.3863 79.1821 91.6547 79.1821 86.9555C79.1821 82.5329 77.7313 79.1468 74.8293 76.7973C72.0661 74.3095 68.1277 73.0656 63.0142 73.0656H35.6527V162.832Z" fill="url(#paint0_linear_172_82)"/>
<path d="M344.667 192.461H341.079C319.024 192.461 301.085 186.981 287.265 176.017C279.626 168.707 274.909 161.665 273.115 154.887C271.587 150.302 270.823 146.083 270.823 142.228V49.735C270.823 49.4692 270.955 49.3364 271.221 49.3364H300.619C307.862 49.3364 314.405 52.991 320.252 60.3001C324.571 64.2202 328.989 66.1804 333.506 66.1804H334.404C340.847 66.1804 346.76 62.7585 352.142 55.9145C356.991 51.529 362.174 49.3364 367.689 49.3364H428.08V49.5358C421.037 55.1837 417.516 62.0275 417.516 70.0675V142.228C417.516 153.259 412.667 163.889 402.966 174.122C389.148 186.349 369.713 192.461 344.667 192.461ZM368.087 143.923V93.8886C368.087 88.7058 366.493 86.1144 363.304 86.1144C360.38 86.1144 352.906 91.2971 340.881 101.663C340.481 101.862 338.222 103.623 334.104 106.945H333.706C317.893 94.121 309.258 87.3104 307.794 86.513C306.332 86.2472 305.47 86.1144 305.204 86.1144C302.547 86.1144 301.019 88.4068 300.619 92.9916V145.418C300.619 159.571 306.666 170.037 318.757 176.814C323.54 179.339 328.655 180.601 334.104 180.601H334.802C345.299 180.601 354.001 176.814 360.912 169.24C365.696 163.658 368.087 155.219 368.087 143.923ZM263.043 192.461H203.946C203.68 192.395 203.548 192.261 203.548 192.063V135.251C203.28 131.596 202.152 129.77 200.159 129.77C200.159 129.371 198.531 129.172 195.277 129.172H171.658C165.878 129.172 162.091 131.132 160.297 135.052C157.706 141.099 154.185 147.644 149.734 154.688C146.811 159.405 141.728 165.385 134.487 172.628C119.206 185.849 104.591 192.461 90.6388 192.461H88.7446C73.9286 192.461 60.3436 184.653 47.9862 169.04C47.2544 168.176 45.9262 166.216 44 163.159L44.3987 162.861H48.7835C65.9895 162.861 85.4232 155.351 107.081 140.335C112.928 136.082 120.867 128.972 130.9 119.005C145.848 101.995 156.976 86.9448 164.283 73.855C165.679 71.5958 169.266 65.3166 175.046 55.0175C178.567 51.23 182.587 49.3364 187.105 49.3364H195.277C221.054 49.3364 238.029 57.343 246.2 73.3566C250.517 82.2605 252.679 92.6262 252.679 104.453V173.426C252.679 180.403 256.133 186.613 263.043 192.063V192.461ZM203.548 95.583C203.548 78.4398 199.663 67.5427 191.888 62.8913C190.626 62.4261 189.562 62.1937 188.7 62.1937H188.5C184.381 62.1937 181.723 64.5858 180.528 69.3699C179.796 71.3634 176.773 83.3237 171.459 105.251C170.462 107.776 169.532 110.799 168.668 114.321V115.019C168.668 117.078 170.661 118.108 174.647 118.108H195.475C200.858 118.108 203.548 116.447 203.548 113.125V95.583ZM144.746 40.9641C138.103 35.4492 134.581 32.6915 134.183 32.6915C134.05 32.5587 133.486 32.4257 132.489 32.2929C130.563 32.2929 128.736 33.6551 127.007 36.3794L123.221 40.5655C118.836 37.1102 116.477 35.0836 116.146 34.4856C120.398 29.5022 122.69 26.6449 123.021 25.9141C123.021 25.4489 123.088 25.1167 123.221 24.9173C123.221 23.4555 121.227 21.3292 117.241 18.5385L112.059 14.1531C120.032 4.71764 124.085 0 124.217 0C131.128 5.71432 134.814 8.57158 135.28 8.57158L136.276 8.7709C137.938 8.7709 139.532 7.57487 141.06 5.1828L145.543 0.199339C149.863 3.5881 152.288 5.58149 152.819 6.17951C148.367 10.9636 146.009 14.0202 145.743 15.3491C145.743 15.6149 145.677 15.8143 145.543 15.9471C145.543 17.3425 147.603 19.5021 151.722 22.4256L156.904 26.8111C148.932 36.18 144.88 40.8975 144.746 40.9641Z" fill="url(#paint1_linear_172_82)"/>
<path d="M354.885 200.037V216H348.076C347.064 216 346.186 215.829 345.443 215.486C344.683 215.143 344.096 214.659 343.678 214.035C343.26 213.424 343.053 212.703 343.053 211.869C343.053 211.08 343.26 210.382 343.678 209.77C344.096 209.159 344.683 208.685 345.443 208.342C346.186 207.999 347.064 207.828 348.076 207.828H350.978V209.011H348.099C346.967 209.011 345.979 208.833 345.129 208.476C344.281 208.133 343.619 207.642 343.142 207.003C342.666 206.362 342.429 205.603 342.429 204.725C342.429 203.788 342.666 202.961 343.142 202.247C343.619 201.546 344.281 201.005 345.129 200.618C345.979 200.23 346.967 200.037 348.099 200.037H354.885ZM351.179 203.14H348.076C347.48 203.14 347.012 203.295 346.669 203.609C346.327 203.936 346.157 204.39 346.157 204.97C346.157 205.507 346.327 205.923 346.669 206.221C347.012 206.533 347.48 206.689 348.076 206.689H351.403V209.704H348.343C347.853 209.704 347.474 209.852 347.206 210.15C346.923 210.448 346.782 210.857 346.782 211.378C346.782 211.855 346.923 212.226 347.206 212.494C347.474 212.762 347.853 212.896 348.343 212.896H351.179V203.14ZM328.519 202.983H337.918V206.132H328.519V202.983ZM325.216 200.037H329.235L333.744 213.231H332.807L337.315 200.037H341.177L335.284 216H331.132L325.216 200.037Z" fill="#86C4FF"/>
<path d="M228.459 201.98H231.159L236.851 214.727L234.708 214.793V200.037H238.281V216H234.172L229.15 204.568H230.422L225.355 216H221.314V200.037H224.93V214.793L222.699 214.727L228.459 201.98Z" fill="#86C4FF"/>
</g>
<defs>
<linearGradient id="paint0_linear_172_82" x1="202.87" y1="-107.012" x2="202.87" y2="311.276" gradientUnits="userSpaceOnUse">
<stop stop-color="#86C5FF"/>
<stop offset="1" stop-color="#00B3FF"/>
</linearGradient>
<linearGradient id="paint1_linear_172_82" x1="210.978" y1="259.402" x2="210.978" y2="-3.69135" gradientUnits="userSpaceOnUse">
<stop stop-color="#0062C5"/>
<stop offset="1" stop-color="#007FFF"/>
</linearGradient>
<clipPath id="clip0_172_82">
<rect width="428" height="216" fill="white"/>
</clipPath>
</defs>
</svg>
